<svg width="30" height="29" viewBox="0 0 30 29" fill="none" xmlns="http://www.w3.org/2000/svg">
  <mask id="mask0_384_911" style="mask-type:alpha" maskUnits="userSpaceOnUse" x="0" y="0" width="30"
    height="29">
    <rect x="0.460938" y="-6.10352e-05" width="29" height="29" fill="#D9D9D9" />
  </mask>
  <g mask="url(#mask0_384_911)">
    <path
      d="M24.1443 25.3749L16.5318 17.7624C15.9276 18.2458 15.2328 18.6284 14.4474 18.9104C13.662 19.1923 12.8262 19.3333 11.9401 19.3333C9.74497 19.3333 7.88715 18.573 6.36667 17.0525C4.84618 15.5321 4.08594 13.6742 4.08594 11.4791C4.08594 9.28397 4.84618 7.42615 6.36667 5.90567C7.88715 4.38518 9.74497 3.62494 11.9401 3.62494C14.1352 3.62494 15.9931 4.38518 17.5135 5.90567C19.034 7.42615 19.7943 9.28397 19.7943 11.4791C19.7943 12.3652 19.6533 13.201 19.3714 13.9864C19.0894 14.7718 18.7068 15.4666 18.2234 16.0708L25.8359 23.6833L24.1443 25.3749ZM11.9401 16.9166C13.4505 16.9166 14.7344 16.388 15.7917 15.3307C16.849 14.2734 17.3776 12.9895 17.3776 11.4791C17.3776 9.96869 16.849 8.68483 15.7917 7.62754C14.7344 6.57025 13.4505 6.04161 11.9401 6.04161C10.4297 6.04161 9.14583 6.57025 8.08854 7.62754C7.03125 8.68483 6.5026 9.96869 6.5026 11.4791C6.5026 12.9895 7.03125 14.2734 8.08854 15.3307C9.14583 16.388 10.4297 16.9166 11.9401 16.9166Z"
      fill="#545F95" />
  </g>
</svg>
  